<svg width="777" height="777" xmlns="http://www.w3.org/2000/svg">
 <g>
  <title>Layer 1</title>
  <rect id="svg_12" height="1024" width="1024" y="-127" x="-91.5" stroke-linecap="null" stroke-linejoin="null" stroke-width="5" stroke="null" fill="#000000"/>
  <g id="workspace"/>
  <path id="svg_1" d="m135.470993,0l194.340012,0c19.339996,48.98 39.369995,97.730003 58.619995,146.759995c2.339996,-3.759995 3.369995,-8.599991 5.459991,-12.669998c15.27002,-38.489998 30.960022,-76.819996 46.360016,-115.259996c2.690002,-6.28 4.549988,-12.99001 8.139984,-18.83001l189.210022,0c-50.950012,128.090006 -101.710022,256.299998 -152.610016,384.430003c-1.040009,2.25 0.660004,4.369995 1.390015,6.420013c50.589996,126.550018 101.540009,253.009979 152.089996,379.600006l0,6.549988l-226.910004,0c0.179993,-0.700012 0.519989,-2.090027 0.690002,-2.780029c-0.880005,-2.149963 -3.220001,0.060059 -4.730011,-0.599976c-2.619995,-1.320007 -3.899994,-4.119995 -5.980011,-6.039978l1.830017,-0.369995l0.51001,-0.890015c-0.470001,-0.539978 -1.430023,-1.630005 -1.900024,-2.169983c0.220001,-6.740051 1.559998,-13.440002 1.320007,-20.210022c0.850006,-4.679993 0.529999,-9.799988 2.089996,-14.200012c6.730011,0.52002 13.380005,-1.76001 20.070007,-0.559998c-2.230011,-11.619995 -3.850006,-23.309998 -4.609985,-35.119995c-1.400024,-5.619995 -0.440002,-11.51001 -1.75,-17.150024c-0.100006,-5.269958 -0.870026,-10.469971 -1.570007,-15.619995c2.190002,0.700012 4.5,-0.139954 6.75,-0.099976c-0.429993,1 -0.940002,1.969971 -1.550018,2.890015c0.150024,1.690002 0.559998,3.359985 0.840027,5.039978c-0.380005,1.900024 2.309998,2.460022 1.519989,4.369995c-0.800018,0.559998 -1.610016,1.100037 -2.440002,1.619995c-1.160004,-4.289978 -0.890015,-9.029968 -2.700012,-13.049988c-0.799988,0.720032 -1.459991,1.559998 -1.97998,2.51001c2.049988,3.710022 0.639984,8.279968 1.630005,12.309998c1.449982,17.559998 2.669983,35.27002 6.369995,52.52002c1.329987,0.319946 2.660004,0.659973 3.98999,1.019958c-0.459991,-5.359985 -1.079987,-10.73999 -1.869995,-16.059998c5.899994,-0.459961 11.48999,-2.630005 17.369995,-3.039978c-0.070007,-1.460022 -0.399994,-2.869995 -0.76001,-4.27002c-3.149994,-10.369995 -5.949982,-20.830017 -9.039978,-31.209961c-1.210022,-0.430054 -2.76001,-0.120056 -3.580017,-1.309998c-0.089996,-1.380005 -0.759979,-2.840027 -0.279999,-4.170044c0.410004,-0.329956 1.220001,-0.97998 1.630005,-1.309998c0.329987,-3.849976 -3.720001,-7.029968 -1.929993,-10.820007c-4.330017,-14.109985 -5.649994,-28.909973 -8.390015,-43.369995c-0.75,-9.369995 -2.699982,-18.570007 -3.769989,-27.880005c-0.769989,-7.769958 -1.410004,-15.549988 -2.390015,-23.299988l0.779999,0.160034c2.150024,27.069946 6.77002,53.849976 11.029999,80.639954c0.950012,4.860046 2.220001,9.660034 3.600006,14.420044c0.720001,-0.050049 2.179993,-0.160034 2.899994,-0.210022c-1.769989,-9.299988 -4.339996,-18.48999 -6.159973,-27.799988c-4.990021,-23.23999 -7.27002,-47.02002 -10.050018,-70.619995c-5.470001,0.349976 -11.070007,-0.280029 -16.449982,0.619995c-1.600006,-6.350037 -2.720001,-13.02002 -6.050018,-18.820007c0.429993,-1.51001 0.920013,-3 1.470001,-4.460022l0.529999,-1.349976l-1.389984,-0.119995l-1.170013,1.26001l-0.75,-0.309998c1.5,-4.920044 1.709991,-11.600037 -3.279999,-14.620056c-3.98999,-2.159973 -9.459991,-1.889954 -13.130005,0.920044c-3.669983,3.320007 -3.820007,8.859985 -2.359985,13.289978c-0.600006,-0.109985 -1.790009,-0.330017 -2.380005,-0.440002l-0.640015,1.030029c-1.399994,1.369995 0.360016,3.26001 0.480011,4.829956c-3.679993,5.480042 -5.369995,12.059998 -6.279999,18.530029c-5.309998,0.150024 -10.649994,-0.160034 -15.899994,0.799988c-1.350006,13.780029 -1.470001,27.700012 -3.339996,41.450012c-1.450012,9.309998 -1.860016,18.73999 -3.480011,28.029968c-1.709991,9.75 -2.790009,19.620056 -4.929993,29.309998l0.399994,0.590027l1.389984,-0.179993c1.790009,0.029968 3.580017,0.01001 5.370026,0.02002c-0.170013,2.149963 -1.200012,4.119995 -1.25,6.299988c0.22998,0.22998 0.690002,0.700012 0.919983,0.940002c0.200012,0.22998 0.600006,0.700012 0.809998,0.929993c0.690002,2.859985 4.26001,4.880005 2.809998,8.169983c-0.509979,10.160034 -2.73999,20.119995 -3.649994,30.22998c-1.190002,7.780029 -3.290009,15.420044 -4.070007,23.26001c0.390015,-0.039978 1.180023,-0.109985 1.570007,-0.149963c7.27002,0.019958 14.480011,1.109985 21.76001,0.849976c0.75,10.940002 1.540009,21.900024 2.130005,32.859985c-0.330017,1.360046 0.220001,2.210022 1.649994,2.559998c-0.26001,1.720032 -2.119995,2.52002 -2.950012,3.970032c-1.899994,2.5 -5.329987,2.580017 -7.929993,3.960022c-0.070007,0.619995 -0.220001,1.849976 -0.290009,2.469971l-223.199997,0l0,-1.72998c51.670013,-127.860046 103.030014,-255.77002 154.639999,-383.640015c0.570007,-1.110016 1.190002,-2.279999 1.02002,-3.570007c-38.470016,-95.700012 -76.810013,-191.48999 -115.290009,-287.220001c-2.800003,-7.159996 -5.880005,-14.229996 -8.470001,-21.469994c-0.440002,0.040001 -1.330002,0.139999 -1.779999,0.189995c0.399994,-0.099998 1.199997,-0.290001 1.599991,-0.379997c-10.149994,-25.170002 -20.220001,-50.4 -30.360001,-75.58004c-0.339996,-0.49 -1.019989,-1.46 -1.360001,-1.94l0,-1.66l0,0.00004z" fill="#ee2424" stroke-miterlimit="3"/>
  <path id="svg_2" d="m378.830994,523.390015c3.670013,-2.809998 9.140015,-3.080017 13.130005,-0.920044c4.98999,3.02002 4.779999,9.700012 3.279999,14.620056l0.75,0.309998l1.170013,-1.26001l1.389984,0.119995l-0.529999,1.349976c-1.929993,-0.719971 -2.269989,1.530029 -3.329987,2.460022c-1.630005,3.109985 -2.240021,7.130005 -4.670013,9.640015c0.080017,-2.170044 0.600006,-4.290039 0.880005,-6.440002c1.079987,-0.640015 1.429993,-1.77002 1.570007,-2.940002c1.559998,-2.27002 1.819977,-5 -0.300018,-7.01001c-0.089996,-2.590027 1.529999,-5.48999 -0.339996,-7.799988c-3.559998,-3.100037 -9.649994,-2.900024 -12.72998,0.889954c-0.910004,2.25 -0.279999,4.710022 -0.590027,7.059998c-1.419983,1.930054 -1.379974,4.130005 -0.009979,6.100037c0.359985,1.330017 -0.029999,3.149963 1.549988,3.799988c-0.019989,2.080017 1.279999,4.27002 0.5,6.289978c-1.859985,-3.529968 -4.359985,-6.859985 -4.790009,-10.940002c-0.569977,-0.359985 -1.72998,-1.089966 -2.309998,-1.449951l0.640015,-1.030029c0.589996,0.109985 1.779999,0.330017 2.380005,0.440002c-1.460022,-4.429993 -1.309998,-9.969971 2.359985,-13.289978l0,0z" fill="#f8fcf7" stroke-miterlimit="3"/>
  <path id="svg_3" d="m378.511414,533.469971c2.700012,-0.839966 5.26001,-0.019958 6.670013,2.470032c-0.740021,3.130005 -3.590027,4.969971 -6.680023,3.630005c-1.369995,-1.970032 -1.410004,-4.169983 0.01001,-6.100037z" fill="#787171" stroke-miterlimit="3"/>
  <path id="svg_4" d="m402.60141,560.890015c5.380005,-0.900024 10.97998,-0.27002 16.449982,-0.619995c2.779999,23.599976 5.060028,47.380005 10.050018,70.619995c1.820007,9.309998 4.389984,18.5 6.160004,27.799988c-0.720001,0.049988 -2.180023,0.159973 -2.899994,0.210022c-1.380005,-4.76001 -2.650024,-9.559998 -3.600006,-14.420044c-4.26001,-26.789978 -8.880005,-53.570007 -11.029999,-80.639954l-0.779999,-0.160034c-4.690002,-0.460022 -9.390015,0.350037 -14.089996,-0.02002c0.099976,-0.969971 0.009979,-1.889954 -0.26001,-2.769958z" fill="#fbfcf9" stroke-miterlimit="3"/>
  <path id="svg_5" d="m351.751404,561.429993c5.25,-0.960022 10.589996,-0.649963 15.899994,-0.799988c-0.129974,0.580017 -0.389984,1.73999 -0.519989,2.320007c-4.329987,0.450012 -8.76001,0.179993 -13.119995,0.640015c-2.870026,17.299988 -2.709991,35.019958 -5.779999,52.309998c-1.340027,13.069946 -2.920013,26.130005 -5.530029,39.009949c-0.269989,1.920044 -1.339996,3.740051 -0.909973,5.720032l-1.390015,0.179993l-0.399994,-0.590027c2.140015,-9.689941 3.220001,-19.559998 4.930023,-29.309998c1.619995,-9.289978 2.029999,-18.719971 3.47998,-28.029968c1.869995,-13.75 1.98999,-27.669983 3.339996,-41.450012z" fill="#fffef2" stroke-miterlimit="3"/>
  <path id="svg_6" d="m347.161407,660.650024c0.420013,2.429993 -0.669983,4.819946 -0.329987,7.23999c-0.230011,-0.23999 -0.690002,-0.710022 -0.920013,-0.940002c0.050018,-2.179993 1.080017,-4.150024 1.25,-6.299988z" fill="#fffef2" stroke-miterlimit="3"/>
  <path id="svg_7" d="m424.281403,661.190002c1.230011,0.369995 0.679993,1.419983 -0.410004,1.650024c-0.600006,2.019958 -0.070007,4.190002 -0.299988,6.279968c-0.279999,-1.679993 -0.690002,-3.349976 -0.839996,-5.039978c0.609985,-0.920044 1.119995,-1.890015 1.549988,-2.890015z" fill="#f4fff7" stroke-miterlimit="3"/>
  <path id="svg_8" d="m417.971405,664.570007c0.519989,-0.950012 1.179993,-1.789978 1.980011,-2.51001c1.809998,4.02002 1.539978,8.76001 2.699982,13.049988c1.649994,13.109985 3.700012,26.170044 5.440002,39.25c0.790009,5.320007 1.410004,10.700012 1.869995,16.059998c-1.329987,-0.359985 -2.660004,-0.700012 -3.98999,-1.019958c-3.700012,-17.25 -4.920013,-34.960022 -6.369995,-52.52002c-0.98999,-4.030029 0.419983,-8.599976 -1.630005,-12.309998z" fill="#fefdff" stroke-miterlimit="3"/>
  <path id="svg_9" d="m347.641418,668.820007c1.649994,1.719971 3.209991,3.580017 5.259979,4.869995c-1.449982,13.48999 -3.089996,27.01001 -4.959991,40.440002c-1.389984,5.369995 -1.23999,11.119995 -3.639984,16.200012c-0.390015,0.039978 -1.180023,0.109985 -1.570007,0.149963c0.779999,-7.839966 2.880005,-15.47998 4.070007,-23.26001c0.910004,-10.109985 3.139984,-20.069946 3.649994,-30.22998c1.449982,-3.289978 -2.119995,-5.309998 -2.809998,-8.169983z" fill="#f4fff7" stroke-miterlimit="3"/>
  <path id="svg_10" d="m384.191406,729.5c0.880005,-0.090027 1.76001,-0.099976 2.649994,-0.030029c0.150024,12.850037 0.25,25.710022 0.26001,38.580017c1.309998,2.809998 2.070007,5.850037 2.309998,8.950012l-7.529999,0c2.640015,-15.679993 1.420013,-31.669983 2.309998,-47.5z" fill="#f62725" stroke-miterlimit="3"/>
  <path id="svg_11" d="m392.885681,539.77948c-2.723022,0.762024 -5.258392,-0.131226 -6.596252,-2.660706c0.829651,-3.107422 3.731354,-4.864746 6.781555,-3.436523c1.312836,2.008606 1.289581,4.208801 -0.185303,6.097229z" fill="#787171" stroke-miterlimit="3"/>
  <text fill="#ffffff" stroke-width="0" stroke-linejoin="null" stroke-linecap="null" x="135.470624" y="212.185592" id="svg_13" font-size="122" font-family="Trebuchet MS" text-anchor="middle" xml:space="preserve" transform="matrix(1.7268743535919704,0,0,1.1739245756052747,156.56072217505843,44.84535705269634) " font-weight="bold">MISTER</text>
 </g>
</svg>